<svg width="134" height="44" viewBox="0 0 134 44" fill="none" xmlns="http://www.w3.org/2000/svg">
<g filter="url(#filter0_d_101_5)">
<path d="M22.32 12.24C22.48 12.24 22.57 12.34 22.59 12.54C22.63 12.72 22.65 12.9 22.65 13.08L22.62 13.29C22.6 13.41 22.57 13.57 22.53 13.77C22.49 13.95 22.44 14.15 22.38 14.37C22.34 14.59 22.28 14.79 22.2 14.97C21.92 15.85 21.69 16.72 21.51 17.58C21.35 18.44 21.22 19.31 21.12 20.19C21.02 21.05 20.94 21.92 20.88 22.8C20.82 23.68 20.76 24.57 20.7 25.47C20.78 24.65 20.85 23.79 20.91 22.89C20.99 21.99 21.09 21.09 21.21 20.19C21.33 19.27 21.48 18.38 21.66 17.52C21.86 16.64 22.13 15.82 22.47 15.06C22.17 16.98 21.92 18.89 21.72 20.79C21.54 22.69 21.39 24.61 21.27 26.55L20.91 26.73C20.91 27.95 20.79 29.12 20.55 30.24C20.31 31.34 20.04 32.48 19.74 33.66C19.64 33.66 19.52 33.66 19.38 33.66C19.26 33.68 19.14 33.69 19.02 33.69C18.92 33.69 18.78 33.66 18.6 33.6C18.42 33.54 18.23 33.46 18.03 33.36C17.83 33.28 17.62 33.18 17.4 33.06C17.2 32.96 17.03 32.86 16.89 32.76C16.03 32.2 15.26 31.51 14.58 30.69C13.9 29.85 13.29 28.93 12.75 27.93C12.21 26.93 11.73 25.88 11.31 24.78C10.89 23.66 10.49 22.54 10.11 21.42C9.75 20.3 9.4 19.21 9.06 18.15C8.72 17.07 8.38 16.08 8.04 15.18L7.86 15.33C8.2 16.33 8.53 17.42 8.85 18.6C9.19 19.76 9.54 20.95 9.9 22.17C10.28 23.37 10.7 24.56 11.16 25.74C11.64 26.92 12.19 28.02 12.81 29.04C13.45 30.06 14.19 30.97 15.03 31.77C15.87 32.55 16.85 33.16 17.97 33.6C17.01 33.34 16.15 32.9 15.39 32.28C14.65 31.64 13.97 30.89 13.35 30.03C12.75 29.17 12.21 28.24 11.73 27.24C11.27 26.22 10.85 25.19 10.47 24.15C10.09 23.11 9.75 22.09 9.45 21.09C9.15 20.09 8.87 19.18 8.61 18.36C8.61 19.2 8.65 20.02 8.73 20.82C8.83 21.62 8.88 22.43 8.88 23.25C8.88 24.63 8.92 26.02 9 27.42C9.08 28.8 9.16 30.18 9.24 31.56L8.58 31.68C8.42 31.68 8.3 31.55 8.22 31.29C8.14 31.01 8.08 30.7 8.04 30.36C8 30.02 7.97 29.7 7.95 29.4C7.95 29.08 7.95 28.88 7.95 28.8H7.59C7.59 28.96 7.58 29.28 7.56 29.76C7.56 30.22 7.53 30.7 7.47 31.2C7.41 31.7 7.31 32.15 7.17 32.55C7.05 32.95 6.87 33.15 6.63 33.15C6.47 33.15 6.32 32.89 6.18 32.37C6.04 31.83 5.9 31.13 5.76 30.27C5.62 29.39 5.49 28.4 5.37 27.3C5.25 26.18 5.15 25.05 5.07 23.91C4.99 22.77 4.92 21.66 4.86 20.58C4.82 19.5 4.8 18.55 4.8 17.73C4.8 16.67 4.87 15.62 5.01 14.58C5.17 13.54 5.42 12.51 5.76 11.49L9.06 10.86C9.16 11 9.25 11.13 9.33 11.25C9.41 11.35 9.5 11.46 9.6 11.58C10.18 12.42 10.68 13.34 11.1 14.34C11.52 15.32 11.9 16.35 12.24 17.43C12.58 18.49 12.9 19.57 13.2 20.67C13.52 21.75 13.87 22.81 14.25 23.85C14.63 24.87 15.07 25.84 15.57 26.76C16.07 27.68 16.68 28.5 17.4 29.22C17.48 28.64 17.55 27.87 17.61 26.91C17.69 25.95 17.77 24.92 17.85 23.82C17.95 22.72 18.05 21.62 18.15 20.52C18.25 19.4 18.37 18.39 18.51 17.49C18.67 16.57 18.85 15.83 19.05 15.27C19.27 14.69 19.52 14.4 19.8 14.4L19.98 14.52C19.56 15.76 19.27 17.01 19.11 18.27C18.97 19.53 18.86 20.8 18.78 22.08C18.72 23.36 18.64 24.64 18.54 25.92C18.46 27.18 18.27 28.43 17.97 29.67L18.15 29.76C18.17 29.58 18.19 29.4 18.21 29.22C18.23 29.02 18.26 28.83 18.3 28.65C18.46 27.49 18.57 26.33 18.63 25.17C18.71 23.99 18.79 22.81 18.87 21.63C18.97 20.45 19.1 19.28 19.26 18.12C19.44 16.96 19.71 15.82 20.07 14.7L20.37 14.91C20.49 14.83 20.6 14.65 20.7 14.37C20.8 14.07 20.92 13.77 21.06 13.47C21.2 13.15 21.37 12.87 21.57 12.63C21.77 12.37 22.02 12.24 22.32 12.24ZM19.26 33.42C19.48 32.7 19.68 31.98 19.86 31.26C20.04 30.54 20.18 29.8 20.28 29.04C20.16 29.76 20 30.47 19.8 31.17C19.62 31.85 19.44 32.54 19.26 33.24C18.06 32.82 17.08 32.36 16.32 31.86C15.58 31.36 14.95 30.79 14.43 30.15C13.93 29.51 13.48 28.79 13.08 27.99C12.76 27.37 12.41 26.68 12.03 25.92C12.27 26.42 12.48 26.88 12.66 27.3C12.94 27.88 13.21 28.42 13.47 28.92C13.75 29.4 14.04 29.84 14.34 30.24C14.64 30.62 15.01 30.99 15.45 31.35C15.89 31.69 16.41 32.03 17.01 32.37C17.63 32.69 18.38 33.04 19.26 33.42ZM17.88 30.42C17.68 30.28 17.42 30.01 17.1 29.61C16.8 29.21 16.49 28.8 16.17 28.38C15.87 27.94 15.6 27.55 15.36 27.21C15.12 26.87 14.98 26.69 14.94 26.67C15.26 27.41 15.67 28.09 16.17 28.71C16.69 29.31 17.23 29.88 17.79 30.42H17.88ZM28.9753 30.21V29.28L29.3653 29.04C29.3053 28.7 29.2653 28.37 29.2453 28.05C29.2253 27.71 29.2153 27.37 29.2153 27.03C29.2153 26.65 29.2153 26.28 29.2153 25.92C29.2353 25.54 29.2453 25.15 29.2453 24.75C29.2453 24.33 29.2253 23.91 29.1853 23.49C29.1453 23.07 29.0753 22.65 28.9753 22.23H28.7953C28.8153 23.29 28.8453 24.33 28.8853 25.35C28.9453 26.37 28.9753 27.41 28.9753 28.47C28.8753 26.95 28.7553 25.43 28.6153 23.91C28.4953 22.39 28.4353 20.85 28.4353 19.29C28.4353 18.83 28.4553 18.37 28.4953 17.91C28.5553 17.43 28.6153 16.96 28.6753 16.5L26.6953 17.01L26.7253 16.92C26.6853 16.86 26.6253 16.75 26.5453 16.59C26.4853 16.43 26.4553 16.33 26.4553 16.29C26.4553 16.19 26.5553 16.09 26.7553 15.99C26.9753 15.87 27.2153 15.77 27.4753 15.69C27.7553 15.61 28.0153 15.54 28.2553 15.48C28.5153 15.42 28.6953 15.38 28.7953 15.36L28.7053 15C28.5453 15.04 28.2153 15.09 27.7153 15.15C27.2353 15.19 26.7453 15.21 26.2453 15.21C25.8453 15.21 25.4953 15.18 25.1953 15.12C24.8953 15.06 24.7453 14.93 24.7453 14.73C24.7453 14.51 24.9453 14.29 25.3453 14.07C25.7453 13.85 26.2553 13.65 26.8753 13.47C27.5153 13.27 28.2153 13.09 28.9753 12.93C29.7353 12.77 30.4653 12.63 31.1653 12.51C31.8653 12.39 32.4953 12.3 33.0553 12.24C33.6153 12.18 34.0053 12.15 34.2253 12.15C35.2453 12.15 36.2153 12.28 37.1353 12.54C38.0753 12.78 38.8953 13.17 39.5953 13.71C40.2953 14.23 40.8453 14.9 41.2453 15.72C41.6653 16.54 41.8753 17.51 41.8753 18.63C41.8753 19.09 41.8053 19.57 41.6653 20.07C41.5253 20.55 41.3053 21.02 41.0053 21.48C40.7253 21.92 40.3553 22.32 39.8953 22.68C39.4553 23.04 38.9253 23.3 38.3053 23.46C39.3453 23.6 40.2353 23.84 40.9753 24.18C41.7353 24.52 42.3453 24.93 42.8053 25.41C43.2853 25.89 43.6353 26.43 43.8553 27.03C44.0753 27.63 44.1853 28.27 44.1853 28.95C44.1853 29.83 44.0053 30.58 43.6453 31.2C43.3053 31.82 42.8453 32.34 42.2653 32.76C41.6853 33.18 41.0253 33.5 40.2853 33.72C39.5453 33.96 38.7753 34.14 37.9753 34.26C37.1753 34.38 36.3853 34.45 35.6053 34.47C34.8253 34.51 34.1153 34.53 33.4753 34.53C33.3153 34.53 33.0053 34.52 32.5453 34.5C32.1053 34.48 31.6453 34.44 31.1653 34.38C30.6853 34.32 30.2553 34.23 29.8753 34.11C29.5153 34.01 29.3353 33.87 29.3353 33.69L29.3653 33.54C30.2053 33.68 31.0453 33.79 31.8853 33.87C32.7253 33.97 33.5653 34.02 34.4053 34.02C35.0453 34.02 35.6753 33.98 36.2953 33.9C36.9153 33.82 37.5353 33.72 38.1553 33.6C37.0353 33.8 35.8653 33.9 34.6453 33.9C33.7853 33.9 32.9253 33.86 32.0653 33.78C31.2253 33.7 30.3853 33.59 29.5453 33.45L29.6953 33.09L29.6353 32.88C29.5753 32.9 29.4853 32.91 29.3653 32.91C29.1653 32.91 28.9353 32.87 28.6753 32.79C28.4153 32.71 28.1653 32.61 27.9253 32.49C27.7053 32.37 27.5153 32.23 27.3553 32.07C27.1953 31.91 27.1153 31.75 27.1153 31.59C27.1153 31.49 27.1953 31.41 27.3553 31.35C27.5153 31.29 27.6953 31.25 27.8953 31.23C28.1153 31.19 28.3253 31.16 28.5253 31.14C28.7253 31.12 28.8653 31.1 28.9453 31.08L28.9753 30.21ZM31.9753 15.99C32.0153 16.11 32.0553 16.37 32.0953 16.77C32.1553 17.15 32.2053 17.6 32.2453 18.12C32.3053 18.64 32.3553 19.2 32.3953 19.8C32.4353 20.4 32.4653 20.98 32.4853 21.54C32.5253 22.08 32.5553 22.57 32.5753 23.01C32.5953 23.43 32.6053 23.73 32.6053 23.91C32.6053 24.97 32.5653 26.03 32.4853 27.09C32.4053 28.13 32.3653 29.18 32.3653 30.24C32.3653 30.64 32.4953 30.89 32.7553 30.99C33.0353 31.09 33.3353 31.14 33.6553 31.14C34.6153 31.14 35.5653 31.11 36.5053 31.05C37.4453 30.97 38.3653 30.76 39.2653 30.42L39.3553 30.78C39.7553 30.58 40.1053 30.34 40.4053 30.06C40.7253 29.76 40.8853 29.37 40.8853 28.89C40.8853 28.35 40.7153 27.89 40.3753 27.51C40.0353 27.11 39.6153 26.79 39.1153 26.55C38.6353 26.31 38.1153 26.13 37.5553 26.01C37.0153 25.89 36.5353 25.83 36.1153 25.83C36.0753 25.83 35.9953 25.86 35.8753 25.92C35.7553 25.96 35.6653 25.99 35.6053 26.01C35.8853 26.03 36.2353 26.08 36.6553 26.16C37.0753 26.24 37.5053 26.35 37.9453 26.49C38.3853 26.61 38.8053 26.77 39.2053 26.97C39.6053 27.17 39.9353 27.39 40.1953 27.63C39.8153 27.33 39.2953 27.08 38.6353 26.88C37.9553 26.68 37.2553 26.52 36.5353 26.4C35.8353 26.28 35.1853 26.19 34.5853 26.13C33.9853 26.05 33.5753 25.99 33.3553 25.95L33.2053 22.62H33.2653C33.7853 22.62 34.3253 22.53 34.8853 22.35C35.4653 22.15 35.9953 21.88 36.4753 21.54C36.9553 21.18 37.3553 20.76 37.6753 20.28C37.9953 19.78 38.1553 19.24 38.1553 18.66C38.1553 18.1 38.0353 17.64 37.7953 17.28C37.5553 16.92 37.2353 16.64 36.8353 16.44C36.4553 16.22 36.0253 16.08 35.5453 16.02C35.0653 15.94 34.5953 15.9 34.1353 15.9C33.7753 15.9 33.4153 15.92 33.0553 15.96C32.6953 15.98 32.3353 15.99 31.9753 15.99ZM32.3953 31.77C32.7353 31.81 33.0553 31.84 33.3553 31.86C33.6753 31.88 34.0053 31.89 34.3453 31.89C34.6653 31.89 35.0553 31.88 35.5153 31.86C35.9953 31.82 36.4953 31.76 37.0153 31.68C37.5553 31.6 38.0853 31.49 38.6053 31.35C39.1453 31.21 39.6253 31.03 40.0453 30.81C40.4653 30.59 40.8053 30.32 41.0653 30C41.3453 29.68 41.4853 29.3 41.4853 28.86C41.4853 28.62 41.4453 28.39 41.3653 28.17C41.2853 27.95 41.1753 27.74 41.0353 27.54C41.1353 27.7 41.2153 27.88 41.2753 28.08C41.3553 28.26 41.3953 28.45 41.3953 28.65C41.3953 29.33 41.1653 29.87 40.7053 30.27C40.2453 30.67 39.6853 30.98 39.0253 31.2C38.3853 31.4 37.7153 31.53 37.0153 31.59C36.3153 31.65 35.7153 31.68 35.2153 31.68C34.7553 31.68 34.2853 31.67 33.8053 31.65C33.3453 31.61 32.8853 31.57 32.4253 31.53L32.3953 31.77ZM29.6953 31.29C29.7353 30.59 29.7553 29.88 29.7553 29.16V27.03C29.7553 26.63 29.7453 26.24 29.7253 25.86C29.7053 25.5 29.6753 25.14 29.6353 24.78C29.6353 25.3 29.6353 25.82 29.6353 26.34C29.6553 26.88 29.6653 27.42 29.6653 27.96C29.6653 28.52 29.6553 29.07 29.6353 29.61C29.6153 30.15 29.5653 30.69 29.4853 31.23L29.6953 31.29ZM35.3653 22.71C35.7253 22.49 36.0653 22.26 36.3853 22.02C36.7253 21.78 37.0353 21.5 37.3153 21.18C37.2153 21.18 37.1653 21.14 37.1653 21.06C36.5453 21.74 35.7753 22.27 34.8553 22.65L35.3653 22.71ZM36.9253 25.5C37.5253 25.6 38.1653 25.79 38.8453 26.07C39.4253 26.31 39.9453 26.59 40.4053 26.91C39.9653 26.55 39.4453 26.24 38.8453 25.98C38.1853 25.66 37.5553 25.5 36.9553 25.5H36.9253ZM30.0853 16.65L30.2953 16.17L29.8153 16.23C29.8153 16.27 29.8153 16.31 29.8153 16.35C29.8353 16.37 29.8453 16.4 29.8453 16.44C29.8453 16.48 29.8353 16.52 29.8153 16.56C29.8153 16.58 29.8153 16.61 29.8153 16.65H30.0853ZM43.2553 30.36C43.4553 29.84 43.5553 29.35 43.5553 28.89V28.56C43.5553 28.44 43.5453 28.33 43.5253 28.23C43.5253 28.87 43.4553 29.47 43.3153 30.03C43.1953 30.57 42.9253 31.08 42.5053 31.56C42.8253 31.24 43.0753 30.84 43.2553 30.36ZM32.0053 25.44C31.9253 25.82 31.8753 26.2 31.8553 26.58C31.8353 26.9 31.8253 27.23 31.8253 27.57C31.8453 27.25 31.8753 26.93 31.9153 26.61C31.9553 26.23 31.9853 25.84 32.0053 25.44ZM42.4453 31.62C42.0653 32.02 41.6453 32.34 41.1853 32.58C40.7253 32.82 40.2453 33.04 39.7453 33.24C40.2653 33.06 40.7553 32.85 41.2153 32.61C41.6753 32.37 42.0853 32.04 42.4453 31.62ZM41.5153 24.9C41.6953 25.06 41.8653 25.22 42.0253 25.38L42.4453 25.8C42.3253 25.62 42.1953 25.46 42.0553 25.32C41.9153 25.16 41.7353 25.02 41.5153 24.9ZM31.8253 30.96V30.06C31.8053 30.22 31.7853 30.37 31.7653 30.51C31.7653 30.65 31.7653 30.8 31.7653 30.96H31.8253ZM40.2553 27.69C40.5753 27.95 40.7353 28.26 40.7353 28.62V28.68C40.6753 28.32 40.5153 27.99 40.2553 27.69ZM40.1653 29.91C39.9853 30.09 39.7653 30.23 39.5053 30.33L40.1653 29.91ZM31.7053 31.68H31.8253V31.47H31.7053V31.68ZM40.5253 29.4C40.5053 29.4 40.4953 29.38 40.4953 29.34C40.4953 29.3 40.5053 29.25 40.5253 29.19C40.5653 29.11 40.6053 29.05 40.6453 29.01L40.5253 29.4ZM40.7353 28.86C40.7353 28.88 40.7153 28.91 40.6753 28.95L40.7353 28.83V28.86Z" fill="#6366F1"/>
<path d="M46.3 30.99C46.3 30.87 46.37 30.76 46.51 30.66C46.65 30.56 46.81 30.47 46.99 30.39C47.19 30.31 47.38 30.24 47.56 30.18C47.76 30.12 47.91 30.07 48.01 30.03C48.97 30.15 49.93 30.25 50.89 30.33C51.85 30.41 52.81 30.45 53.77 30.45C54.13 30.45 54.63 30.45 55.27 30.45C55.91 30.43 56.61 30.39 57.37 30.33C58.13 30.27 58.9 30.18 59.68 30.06C60.46 29.92 61.17 29.73 61.81 29.49C62.45 29.25 62.97 28.95 63.37 28.59C63.77 28.23 63.97 27.78 63.97 27.24C63.97 26.8 63.87 26.41 63.67 26.07C63.49 25.71 63.24 25.4 62.92 25.14C62.62 24.86 62.28 24.63 61.9 24.45C61.76 24.37 61.61 24.3 61.45 24.24C61.61 24.32 61.76 24.4 61.9 24.48C62.26 24.68 62.58 24.93 62.86 25.23C63.16 25.51 63.4 25.83 63.58 26.19C63.76 26.53 63.85 26.92 63.85 27.36C63.85 27.84 63.67 28.25 63.31 28.59C62.97 28.91 62.52 29.18 61.96 29.4C61.42 29.62 60.81 29.79 60.13 29.91C59.47 30.03 58.81 30.12 58.15 30.18C57.49 30.24 56.88 30.28 56.32 30.3C55.76 30.3 55.32 30.3 55 30.3C53.98 30.3 52.95 30.27 51.91 30.21C50.89 30.13 49.87 30.04 48.85 29.94C49.21 29.84 49.57 29.77 49.93 29.73C50.31 29.67 50.69 29.64 51.07 29.64C51.71 29.64 52.34 29.65 52.96 29.67C53.58 29.67 54.2 29.67 54.82 29.67C55.56 29.67 56.29 29.66 57.01 29.64C57.73 29.6 58.47 29.52 59.23 29.4L59.32 29.76C59.62 29.7 60 29.61 60.46 29.49C60.92 29.35 61.36 29.18 61.78 28.98C62.22 28.78 62.59 28.53 62.89 28.23C63.21 27.93 63.37 27.58 63.37 27.18C63.37 26.6 63.16 26.09 62.74 25.65C62.32 25.21 61.78 24.82 61.12 24.48C60.48 24.12 59.75 23.81 58.93 23.55C58.11 23.29 57.3 23.06 56.5 22.86C55.72 22.66 54.98 22.48 54.28 22.32C53.58 22.16 53.02 22.01 52.6 21.87V22.05C53.02 22.21 53.57 22.38 54.25 22.56C54.93 22.72 55.66 22.9 56.44 23.1C57.24 23.3 58.04 23.53 58.84 23.79C59.64 24.03 60.36 24.32 61 24.66C61.66 25 62.19 25.39 62.59 25.83C63.01 26.27 63.22 26.77 63.22 27.33C63.22 27.65 63.07 27.93 62.77 28.17C62.47 28.41 62.11 28.62 61.69 28.8C61.29 28.96 60.88 29.09 60.46 29.19C60.04 29.29 59.72 29.36 59.5 29.4C59.76 29.34 60.09 29.26 60.49 29.16C60.91 29.04 61.31 28.89 61.69 28.71C62.09 28.53 62.43 28.32 62.71 28.08C62.99 27.82 63.13 27.52 63.13 27.18C63.13 26.62 62.91 26.15 62.47 25.77C62.03 25.39 61.45 25.05 60.73 24.75C60.01 24.45 59.19 24.18 58.27 23.94C57.35 23.7 56.4 23.44 55.42 23.16C54.46 22.88 53.52 22.56 52.6 22.2C51.68 21.84 50.86 21.39 50.14 20.85C49.42 20.31 48.84 19.67 48.4 18.93C47.96 18.19 47.74 17.3 47.74 16.26C47.74 15.24 47.98 14.38 48.46 13.68C48.96 12.96 49.59 12.38 50.35 11.94C51.13 11.48 51.98 11.15 52.9 10.95C53.82 10.75 54.71 10.65 55.57 10.65C56.83 10.65 58.06 10.83 59.26 11.19C60.48 11.55 61.63 12.05 62.71 12.69C62.59 12.73 62.52 12.79 62.5 12.87C62.48 12.93 62.46 13 62.44 13.08C62.44 13.16 62.42 13.23 62.38 13.29C62.36 13.35 62.3 13.38 62.2 13.38C62.12 13.38 61.96 13.35 61.72 13.29C61.5 13.21 61.26 13.13 61 13.05C60.74 12.95 60.49 12.86 60.25 12.78C60.01 12.7 59.85 12.64 59.77 12.6L59.68 12.87C59.86 12.95 60.09 13.07 60.37 13.23C60.67 13.37 60.95 13.55 61.21 13.77C61.49 13.97 61.72 14.19 61.9 14.43C62.1 14.67 62.2 14.91 62.2 15.15C62.2 15.41 62.08 15.54 61.84 15.54C61.54 15.54 61.18 15.46 60.76 15.3C60.36 15.14 59.91 14.97 59.41 14.79C58.91 14.59 58.37 14.41 57.79 14.25C57.23 14.09 56.66 14.01 56.08 14.01C55.7 14.01 55.25 14.05 54.73 14.13C54.23 14.19 53.74 14.32 53.26 14.52C52.8 14.7 52.41 14.96 52.09 15.3C51.77 15.62 51.61 16.03 51.61 16.53C51.61 16.99 51.82 17.38 52.24 17.7C52.68 18.02 53.25 18.31 53.95 18.57C54.67 18.83 55.48 19.08 56.38 19.32C57.28 19.56 58.2 19.83 59.14 20.13C60.1 20.41 61.03 20.74 61.93 21.12C62.83 21.5 63.63 21.96 64.33 22.5C65.05 23.04 65.62 23.68 66.04 24.42C66.48 25.16 66.7 26.03 66.7 27.03C66.7 28.01 66.5 28.84 66.1 29.52C65.7 30.2 65.17 30.77 64.51 31.23C63.85 31.67 63.1 32.02 62.26 32.28C61.42 32.52 60.55 32.71 59.65 32.85C58.77 32.97 57.89 33.04 57.01 33.06C56.15 33.1 55.37 33.12 54.67 33.12H51.67C51.49 33.12 51.24 33.11 50.92 33.09C50.62 33.09 50.32 33.07 50.02 33.03C49.72 33.01 49.46 32.96 49.24 32.88C49.02 32.8 48.91 32.7 48.91 32.58L48.94 32.43C49.76 32.47 50.57 32.51 51.37 32.55C52.17 32.57 52.98 32.58 53.8 32.58C54.56 32.58 55.32 32.58 56.08 32.58C56.76 32.56 57.44 32.52 58.12 32.46C57.78 32.48 57.44 32.5 57.1 32.52C56.68 32.52 56.27 32.52 55.87 32.52H54.67C52.79 32.52 50.94 32.46 49.12 32.34C49.16 32.18 49.18 32.07 49.18 32.01C49.18 31.93 49.16 31.85 49.12 31.77C49.08 31.77 49.02 31.78 48.94 31.8C48.88 31.8 48.8 31.8 48.7 31.8C48.48 31.8 48.23 31.79 47.95 31.77C47.69 31.75 47.43 31.71 47.17 31.65C46.93 31.59 46.72 31.51 46.54 31.41C46.38 31.29 46.3 31.15 46.3 30.99ZM64.72 30.21C64.38 30.51 64.02 30.76 63.64 30.96C63.3 31.14 62.95 31.31 62.59 31.47C62.95 31.35 63.3 31.21 63.64 31.05C64.02 30.89 64.38 30.61 64.72 30.21ZM79.9588 18C79.7788 18 79.5288 18.03 79.2088 18.09C78.9088 18.15 78.5988 18.22 78.2788 18.3C77.9788 18.38 77.6988 18.46 77.4388 18.54C77.1988 18.62 77.0488 18.68 76.9888 18.72C77.5088 18.64 77.9888 18.55 78.4288 18.45C78.8688 18.33 79.3488 18.27 79.8688 18.27C79.7688 18.45 79.6388 18.59 79.4788 18.69C79.3188 18.79 79.1388 18.87 78.9388 18.93C78.7588 18.97 78.5588 19.01 78.3388 19.05C78.1188 19.07 77.8888 19.11 77.6488 19.17L77.4388 18.9C77.0588 19.04 76.7688 19.13 76.5688 19.17C76.3688 19.19 76.1588 19.2 75.9388 19.2C75.6988 19.2 75.4488 19.2 75.1888 19.2C74.9488 19.18 74.6788 19.17 74.3788 19.17C74.3788 19.27 74.3688 19.35 74.3488 19.41C74.8088 19.41 75.1988 19.41 75.5188 19.41C75.8388 19.39 76.2288 19.35 76.6888 19.29C76.2488 19.37 75.8588 19.43 75.5188 19.47C75.1988 19.51 74.8088 19.53 74.3488 19.53C74.2688 19.99 74.1988 20.44 74.1388 20.88C74.0788 21.32 74.0488 21.75 74.0488 22.17C74.0488 22.41 74.0588 22.69 74.0788 23.01C74.0988 23.33 74.1188 23.66 74.1388 24C74.1788 24.32 74.2088 24.63 74.2288 24.93C74.2488 25.21 74.2588 25.42 74.2588 25.56V27.36C74.3588 27.76 74.6488 28.06 75.1288 28.26C75.6088 28.46 76.2988 28.56 77.1988 28.56H78.1588C78.4988 28.56 78.7288 28.6 78.8488 28.68C78.9888 28.74 79.0588 28.83 79.0588 28.95C79.0588 29.05 78.9788 29.11 78.8188 29.13C78.6588 29.13 78.4988 29.13 78.3388 29.13C77.7588 29.13 77.1488 29.09 76.5088 29.01C75.9088 28.93 75.3188 28.84 74.7388 28.74C75.3188 28.88 75.9288 29.01 76.5688 29.13C77.2288 29.23 77.8688 29.28 78.4888 29.28H78.7588C78.8388 29.28 78.9288 29.27 79.0288 29.25C79.0288 29.35 79.0288 29.44 79.0288 29.52C79.0488 29.6 79.0788 29.69 79.1188 29.79L79.3588 29.73C79.4188 29.71 79.4888 29.7 79.5688 29.7C79.6488 29.68 79.7088 29.65 79.7488 29.61C80.3888 29.67 80.7088 29.89 80.7088 30.27C80.7088 30.49 80.6488 30.67 80.5288 30.81C80.4088 30.95 80.2588 31.06 80.0788 31.14C79.8988 31.22 79.6988 31.28 79.4788 31.32C79.2588 31.34 79.0488 31.35 78.8488 31.35C78.1488 31.35 77.4588 31.31 76.7788 31.23C76.1188 31.13 75.4688 31.03 74.8288 30.93C75.3888 31.13 76.0988 31.29 76.9588 31.41C77.8188 31.53 78.6888 31.59 79.5688 31.59C79.3488 31.73 79.0888 31.84 78.7888 31.92C78.4888 32 78.1788 32.04 77.8588 32.04L75.6988 31.77C75.4188 31.73 75.1988 31.69 75.0388 31.65C74.8988 31.61 74.7588 31.57 74.6188 31.53C74.4788 31.47 74.3188 31.41 74.1388 31.35C73.9788 31.29 73.7488 31.22 73.4488 31.14V30.81C72.9288 30.67 72.5088 30.43 72.1888 30.09C71.8688 29.75 71.6188 29.38 71.4388 28.98C71.2588 28.58 71.1388 28.18 71.0788 27.78C71.0188 27.36 70.9888 26.99 70.9888 26.67C70.9888 26.33 70.9888 26.02 70.9888 25.74C71.0088 25.44 71.0188 25.14 71.0188 24.84C71.0188 24.62 71.0088 24.34 70.9888 24C70.9888 23.66 70.9788 23.3 70.9588 22.92C70.9388 22.54 70.9188 22.15 70.8988 21.75C70.8988 21.35 70.8988 20.97 70.8988 20.61C70.8988 20.39 70.8988 20.18 70.8988 19.98C70.9188 19.78 70.9388 19.6 70.9588 19.44H70.6588C70.6388 19.58 70.6288 19.74 70.6288 19.92V20.46C70.6288 21.04 70.6388 21.62 70.6588 22.2C70.6788 22.76 70.6888 23.28 70.6888 23.76C70.7088 24.24 70.7288 24.66 70.7488 25.02C70.7688 25.36 70.7788 25.61 70.7788 25.77V26.97V27.21C70.7188 26.67 70.6588 25.9 70.5988 24.9C70.5388 23.74 70.5088 22.46 70.5088 21.06V20.52C70.5088 20.3 70.5088 20.09 70.5088 19.89C70.5288 19.69 70.5588 19.54 70.5988 19.44L69.5788 19.38C69.3588 19.24 69.1388 19.13 68.9188 19.05C68.6988 18.97 68.4988 18.93 68.3188 18.93V18.33C68.3188 18.21 68.3288 18.11 68.3488 18.03C68.3888 17.93 68.4888 17.88 68.6488 17.88C68.6888 17.88 68.7888 17.9 68.9488 17.94V17.58C68.7288 17.46 68.5488 17.3 68.4088 17.1C68.2688 16.88 68.1988 16.66 68.1988 16.44C68.1988 15.92 68.5688 15.66 69.3088 15.66C69.5888 15.66 69.8788 15.68 70.1788 15.72C70.4788 15.76 70.7888 15.79 71.1088 15.81C71.1888 15.37 71.2588 14.98 71.3188 14.64C71.3788 14.28 71.4388 13.94 71.4988 13.62C71.5588 13.28 71.6288 12.95 71.7088 12.63C71.7888 12.29 71.8888 11.94 72.0088 11.58C72.1888 11.18 72.3288 10.75 72.4288 10.29C72.5288 9.81 72.5988 9.34 72.6388 8.88L73.2688 8.91C73.3688 8.91 73.4488 8.94 73.5088 9C73.5888 9.06 73.6288 9.2 73.6288 9.42C73.6288 9.6 73.5988 9.84 73.5388 10.14L73.8988 10.23C74.0588 9.69 74.2488 9.25 74.4688 8.91C74.7088 8.57 74.9388 8.4 75.1588 8.4C75.4988 8.4 75.7088 8.83 75.7888 9.69V10.23C75.7888 10.75 75.7488 11.24 75.6688 11.7C75.6088 12.14 75.5288 12.58 75.4288 13.02C75.3288 13.46 75.2288 13.91 75.1288 14.37C75.0288 14.83 74.9388 15.33 74.8588 15.87C75.2988 15.93 75.7288 15.96 76.1488 15.96C76.3488 15.96 76.5488 15.96 76.7488 15.96C76.9488 15.94 77.1488 15.93 77.3488 15.93C77.5488 15.93 77.7588 15.85 77.9788 15.69C78.1988 15.53 78.3988 15.45 78.5788 15.45C78.7388 15.45 78.8588 15.5 78.9388 15.6C79.0188 15.7 79.0588 15.81 79.0588 15.93C78.6988 16.03 78.3388 16.14 77.9788 16.26C77.6388 16.36 77.3088 16.46 76.9888 16.56C77.3088 16.52 77.6488 16.45 78.0088 16.35C78.3688 16.23 78.7488 16.12 79.1488 16.02C79.1488 16.12 79.1488 16.21 79.1488 16.29C79.1688 16.37 79.1988 16.46 79.2388 16.56C79.2788 16.56 79.3288 16.55 79.3888 16.53C79.5088 16.49 79.5788 16.47 79.5988 16.47C79.7988 16.57 79.9288 16.7 79.9888 16.86C80.0488 17 80.0788 17.16 80.0788 17.34C80.0788 17.48 80.0588 17.61 80.0188 17.73C79.9788 17.83 79.9588 17.92 79.9588 18ZM72.0088 29.07C71.7288 28.53 71.5788 28 71.5588 27.48C71.5388 26.96 71.5088 26.47 71.4688 26.01L71.1988 21.45L71.1088 21.99C71.1088 23.33 71.1488 24.55 71.2288 25.65C71.3288 26.73 71.4688 27.57 71.6488 28.17C71.6488 28.35 71.6388 28.47 71.6188 28.53C71.6188 28.59 71.6188 28.64 71.6188 28.68C71.6188 28.72 71.6388 28.77 71.6788 28.83C71.7388 28.89 71.8488 28.97 72.0088 29.07ZM73.7188 27.45C73.6788 27.29 73.6588 27.12 73.6588 26.94V25.47C73.6388 25.67 73.6188 25.87 73.5988 26.07C73.5788 26.25 73.5688 26.44 73.5688 26.64C73.5688 27.16 73.5988 27.56 73.6588 27.84C73.7188 28.08 73.8388 28.28 74.0188 28.44C73.9188 28.32 73.8488 28.19 73.8088 28.05C73.7888 27.89 73.7588 27.69 73.7188 27.45ZM70.8088 27.42L70.7788 27.21L70.8088 27.42ZM74.0788 28.47C74.0588 28.45 74.0388 28.44 74.0188 28.44C74.0388 28.44 74.0588 28.45 74.0788 28.47ZM89.3092 14.94C89.3292 15.04 89.4392 15.09 89.6392 15.09H89.6992C89.8192 15.09 89.8992 15.1 89.9392 15.12C90.9792 15.44 92.0092 15.91 93.0292 16.53C94.0692 17.13 94.9992 17.86 95.8192 18.72C96.6592 19.56 97.3292 20.52 97.8292 21.6C98.3492 22.68 98.6092 23.84 98.6092 25.08C98.6092 26.16 98.3992 27.2 97.9792 28.2C97.5592 29.2 96.9792 30.07 96.2392 30.81C96.9992 30.15 97.5992 29.33 98.0392 28.35C98.4992 27.35 98.7292 26.28 98.7292 25.14C98.7292 23.86 98.4592 22.67 97.9192 21.57C97.3792 20.45 96.6892 19.45 95.8492 18.57C95.0092 17.69 94.0692 16.94 93.0292 16.32C92.0092 15.68 91.0092 15.19 90.0292 14.85C90.7892 14.85 91.5592 15.02 92.3392 15.36C93.1392 15.7 93.8992 16.15 94.6192 16.71C95.3392 17.25 95.9992 17.88 96.5992 18.6C97.2192 19.3 97.7392 20.02 98.1592 20.76L97.9492 21.06C98.3492 21.66 98.6492 22.31 98.8492 23.01C99.0692 23.71 99.1792 24.43 99.1792 25.17C99.1792 26.59 98.8692 27.84 98.2492 28.92C97.6492 29.98 96.8792 30.87 95.9392 31.59C95.0192 32.29 93.9992 32.82 92.8792 33.18C91.7792 33.54 90.7392 33.72 89.7592 33.72C89.1992 33.72 88.6292 33.66 88.0492 33.54C87.4892 33.42 86.9192 33.22 86.3392 32.94V33.12C86.8992 33.44 87.4692 33.66 88.0492 33.78C88.6492 33.9 89.2392 33.96 89.8192 33.96C91.2592 33.96 92.6692 33.64 94.0492 33C95.4492 32.38 96.6292 31.5 97.5892 30.36C96.6692 31.54 95.5192 32.46 94.1392 33.12C92.7792 33.78 91.3592 34.11 89.8792 34.11C88.3592 34.11 87.1292 33.81 86.1892 33.21C85.2492 32.63 84.5092 31.91 83.9692 31.05C83.4492 30.19 83.0992 29.28 82.9192 28.32C82.7392 27.36 82.6492 26.5 82.6492 25.74C82.6492 24.72 82.7792 23.72 83.0392 22.74C83.3192 21.76 83.7392 20.86 84.2992 20.04C84.8592 19.22 85.5792 18.52 86.4592 17.94C87.3392 17.34 88.3992 16.92 89.6392 16.68L88.7692 16.47C88.3492 16.37 88.0492 16.25 87.8692 16.11C87.6892 15.97 87.5992 15.85 87.5992 15.75C87.5992 15.59 87.7692 15.42 88.1092 15.24C88.4692 15.04 88.8692 14.94 89.3092 14.94ZM87.9592 18.72C88.4992 18.52 89.0192 18.42 89.5192 18.42C90.0192 18.42 90.3992 18.5 90.6592 18.66C90.9392 18.8 91.0792 18.95 91.0792 19.11C91.0792 19.21 90.9592 19.32 90.7192 19.44C90.4992 19.56 90.2092 19.73 89.8492 19.95C89.5092 20.15 89.1292 20.41 88.7092 20.73C88.3092 21.05 87.9292 21.46 87.5692 21.96C87.2292 22.44 86.9392 23.03 86.6992 23.73C86.4792 24.43 86.3692 25.25 86.3692 26.19C86.3692 27.57 86.6792 28.61 87.2992 29.31C87.9192 30.01 88.7792 30.36 89.8792 30.36C90.5792 30.36 91.2892 30.24 92.0092 30C92.7492 29.76 93.4092 29.42 93.9892 28.98C94.5892 28.54 95.0692 28 95.4292 27.36C95.8092 26.72 95.9992 26 95.9992 25.2C95.9992 24.6 95.8892 24 95.6692 23.4C95.4692 22.8 95.1792 22.23 94.7992 21.69C94.4392 21.13 93.9992 20.61 93.4792 20.13C92.9792 19.65 92.4292 19.24 91.8292 18.9C91.2492 18.58 90.7692 18.34 90.3892 18.18C90.0292 18 89.7692 17.83 89.6092 17.67C89.4492 17.75 89.2192 17.85 88.9192 17.97C88.6392 18.07 88.2592 18.23 87.7792 18.45L87.9592 18.72ZM89.9692 17.31C90.8892 17.61 91.7692 18.06 92.6092 18.66C93.3292 19.2 93.9892 19.79 94.5892 20.43C94.0092 19.75 93.3792 19.14 92.6992 18.6C91.9192 17.96 91.0492 17.46 90.0892 17.1L89.9692 17.31ZM95.7892 27.54C95.4892 28.18 95.0692 28.75 94.5292 29.25C94.8892 29.01 95.1892 28.72 95.4292 28.38C95.6892 28.04 95.8992 27.7 96.0592 27.36C96.2192 27.02 96.3392 26.71 96.4192 26.43C96.4792 26.17 96.5292 25.96 96.5692 25.8C96.3492 26.32 96.0892 26.9 95.7892 27.54ZM97.7992 30.12C97.7792 30.16 97.7492 30.2 97.7092 30.24C97.6892 30.26 97.6692 30.27 97.6492 30.27C97.6292 30.27 97.6792 30.17 97.7992 29.97C97.9192 29.75 98.0592 29.5 98.2192 29.22C98.3992 28.92 98.5692 28.61 98.7292 28.29C98.8692 28.05 98.9692 27.84 99.0292 27.66C98.7492 28.52 98.3392 29.34 97.7992 30.12ZM99.4792 25.26C99.4792 25.58 99.4592 25.9 99.4192 26.22C99.3792 26.52 99.3092 26.8 99.2092 27.06C99.3492 26.56 99.4192 26 99.4192 25.38C99.4192 24.92 99.3792 24.47 99.2992 24.03C99.2392 23.65 99.1592 23.28 99.0592 22.92C99.1592 23.28 99.2492 23.64 99.3292 24C99.4292 24.4 99.4792 24.82 99.4792 25.26ZM89.9692 16.83L89.6992 16.71C89.6792 16.75 89.6492 16.79 89.6092 16.83C89.5692 16.87 89.5492 16.91 89.5492 16.95C89.5492 16.99 89.5692 17.05 89.6092 17.13C89.6692 17.19 89.7192 17.24 89.7592 17.28L89.9692 16.83ZM94.7692 20.64C94.7092 20.56 94.6492 20.49 94.5892 20.43C94.6492 20.51 94.7092 20.58 94.7692 20.64ZM99.0292 27.66C99.0492 27.62 99.0592 27.58 99.0592 27.54C99.0592 27.58 99.0492 27.62 99.0292 27.66ZM99.0892 27.48C99.0692 27.5 99.0592 27.52 99.0592 27.54C99.0592 27.52 99.0692 27.5 99.0892 27.48ZM107.358 33.33C107.158 33.37 106.938 33.39 106.698 33.39H105.828C105.308 33.39 104.938 33.45 104.718 33.57C104.518 33.69 104.398 33.75 104.358 33.75L104.238 33.21V32.67L104.088 29.85C104.048 29.31 103.938 28.73 103.758 28.11C103.578 27.49 103.438 26.86 103.338 26.22C103.278 25.8 103.228 25.4 103.188 25.02L103.068 23.85C103.028 23.45 102.978 23.04 102.918 22.62C102.878 22.2 102.808 21.75 102.708 21.27C102.708 21.15 102.708 21.03 102.708 20.91C102.728 20.79 102.738 20.67 102.738 20.55C102.738 19.93 102.688 19.32 102.588 18.72C102.488 18.12 102.348 17.53 102.168 16.95C102.308 16.89 102.438 16.84 102.558 16.8C102.678 16.74 102.788 16.71 102.888 16.71C102.988 16.71 103.098 16.83 103.218 17.07C103.338 17.29 103.468 17.76 103.608 18.48C103.648 18.48 103.708 18.47 103.788 18.45C103.868 18.41 103.928 18.39 103.968 18.39C103.948 18.05 103.898 17.69 103.818 17.31C103.738 16.91 103.658 16.53 103.578 16.17C103.498 15.81 103.418 15.49 103.338 15.21C103.278 14.91 103.248 14.67 103.248 14.49C103.248 14.45 103.248 14.4 103.248 14.34C103.268 14.28 103.318 14.25 103.398 14.25C103.498 14.25 103.628 14.36 103.788 14.58C103.948 14.8 104.118 15.08 104.298 15.42C104.478 15.76 104.648 16.13 104.808 16.53C104.988 16.91 105.148 17.27 105.288 17.61C105.828 16.59 106.438 15.82 107.118 15.3C107.818 14.76 108.728 14.49 109.848 14.49C110.668 14.49 111.338 14.59 111.858 14.79C112.378 14.97 112.778 15.18 113.058 15.42C113.358 15.64 113.558 15.85 113.658 16.05L113.838 16.35C113.838 16.47 113.778 16.55 113.658 16.59C113.138 16.09 112.548 15.71 111.888 15.45C111.228 15.19 110.548 15.06 109.848 15.06C109.168 15.06 108.658 15.15 108.318 15.33C107.998 15.49 107.658 15.69 107.298 15.93C107.678 15.69 108.028 15.5 108.348 15.36C108.688 15.22 109.178 15.15 109.818 15.15C110.518 15.15 111.188 15.29 111.828 15.57C112.468 15.83 113.018 16.17 113.478 16.59C113.378 16.63 113.288 16.68 113.208 16.74C113.148 16.78 113.118 16.85 113.118 16.95C113.218 16.95 113.328 17.02 113.448 17.16C113.568 17.28 113.678 17.43 113.778 17.61C113.878 17.79 113.958 17.98 114.018 18.18C114.098 18.36 114.138 18.51 114.138 18.63C114.138 18.97 114.008 19.14 113.748 19.14C113.548 19.14 113.308 19.07 113.028 18.93C112.968 18.91 112.838 18.8 112.638 18.6C112.458 18.4 112.228 18.2 111.948 18C111.668 17.78 111.348 17.58 110.988 17.4C110.628 17.22 110.228 17.13 109.788 17.13C109.428 17.13 109.108 17.21 108.828 17.37C108.568 17.51 108.328 17.71 108.108 17.97C107.888 18.21 107.688 18.49 107.508 18.81L107.118 19.53C107.418 18.99 107.748 18.5 108.108 18.06C108.508 17.54 109.008 17.28 109.608 17.28C110.128 17.28 110.608 17.4 111.048 17.64C111.488 17.86 111.848 18.14 112.128 18.48C111.788 18.34 111.388 18.2 110.928 18.06C110.468 17.92 110.028 17.85 109.608 17.85C109.388 17.85 109.198 17.9 109.038 18C108.878 18.1 108.738 18.23 108.618 18.39C108.518 18.53 108.418 18.69 108.318 18.87C108.238 19.05 108.148 19.22 108.048 19.38L107.658 19.44C107.318 20.02 107.038 20.7 106.818 21.48C106.618 22.24 106.518 23.04 106.518 23.88C106.518 24.38 106.538 24.83 106.578 25.23C106.638 25.63 106.718 26.04 106.818 26.46L107.178 27.39L107.118 26.52C107.078 25.84 107.038 25.24 106.998 24.72C106.958 24.18 106.938 23.59 106.938 22.95C106.978 22.37 107.058 21.82 107.178 21.3C107.278 20.86 107.428 20.45 107.628 20.07C107.388 20.55 107.228 21.1 107.148 21.72C107.048 22.4 106.998 23.12 106.998 23.88C106.998 24.48 107.028 25.05 107.088 25.59C107.148 26.13 107.218 26.67 107.298 27.21C107.398 27.75 107.498 28.31 107.598 28.89C107.698 29.45 107.778 30.07 107.838 30.75L107.928 31.32L108.108 33.03L107.358 33.33ZM107.718 19.92L107.628 20.07L107.718 19.92ZM126.359 33.54C125.599 33.8 125.019 33.94 124.619 33.96C124.219 34 123.869 34.03 123.569 34.05C122.449 34.05 121.439 33.84 120.539 33.42C119.639 33 118.869 32.43 118.229 31.71C117.589 30.99 117.089 30.15 116.729 29.19C116.389 28.21 116.219 27.17 116.219 26.07C116.219 25.43 116.279 24.77 116.399 24.09C116.519 23.39 116.699 22.71 116.939 22.05C117.179 21.37 117.489 20.74 117.869 20.16C118.229 19.58 118.659 19.06 119.159 18.6C118.639 19.02 118.199 19.52 117.839 20.1C117.459 20.68 117.139 21.31 116.879 21.99C116.619 22.65 116.429 23.34 116.309 24.06C116.189 24.76 116.129 25.44 116.129 26.1C116.129 26.94 116.259 27.84 116.519 28.8C116.799 29.74 117.239 30.62 117.839 31.44C118.439 32.24 119.209 32.91 120.149 33.45C121.109 33.99 122.269 34.26 123.629 34.26C124.269 34.26 124.939 34.17 125.639 33.99C124.879 34.49 124.029 34.74 123.089 34.74C122.329 34.74 121.609 34.62 120.929 34.38C120.269 34.16 119.649 33.84 119.069 33.42C118.509 33.02 117.999 32.54 117.539 31.98C117.079 31.42 116.689 30.82 116.369 30.18L116.639 29.94C116.299 29.26 116.049 28.58 115.889 27.9C115.749 27.22 115.679 26.53 115.679 25.83C115.679 24.81 115.819 23.83 116.099 22.89C116.399 21.95 116.789 21.06 117.269 20.22L117.989 19.23C118.109 19.01 118.279 18.79 118.499 18.57C118.739 18.35 118.999 18.14 119.279 17.94C119.559 17.72 119.849 17.53 120.149 17.37C120.469 17.19 120.769 17.03 121.049 16.89C121.769 16.53 122.489 16.21 123.209 15.93C123.929 15.63 124.769 15.41 125.729 15.27L125.609 15.18C123.769 15.36 122.209 15.81 120.929 16.53C119.649 17.23 118.609 18.09 117.809 19.11C117.009 20.13 116.429 21.25 116.069 22.47C115.709 23.67 115.529 24.85 115.529 26.01C115.529 26.63 115.579 27.26 115.679 27.9C115.799 28.52 115.969 29.14 116.189 29.76C115.689 28.56 115.439 27.29 115.439 25.95C115.439 24.63 115.659 23.32 116.099 22.02C116.539 20.72 117.229 19.52 118.169 18.42C119.369 17.32 120.679 16.48 122.099 15.9C123.519 15.3 124.889 15 126.209 15C126.629 15 127.059 15.07 127.499 15.21C127.939 15.35 128.339 15.57 128.699 15.87C129.059 16.15 129.349 16.52 129.569 16.98C129.809 17.44 129.929 18 129.929 18.66C129.929 19.2 129.799 19.86 129.539 20.64C129.279 21.42 128.889 22.18 128.369 22.92C127.869 23.64 127.239 24.26 126.479 24.78C125.719 25.28 124.839 25.53 123.839 25.53H122.849C122.109 25.37 121.429 25.19 120.809 24.99C120.209 24.77 119.639 24.6 119.099 24.48C119.019 24.8 118.969 25.11 118.949 25.41C118.949 25.69 118.949 25.97 118.949 26.25C118.949 26.83 119.009 27.4 119.129 27.96C119.269 28.5 119.479 29 119.759 29.46C120.039 29.92 120.389 30.31 120.809 30.63C121.249 30.93 121.779 31.12 122.399 31.2C122.779 31.28 123.109 31.33 123.389 31.35C123.669 31.35 123.899 31.36 124.079 31.38C124.279 31.38 124.419 31.41 124.499 31.47C124.599 31.51 124.649 31.6 124.649 31.74C124.449 31.8 124.239 31.84 124.019 31.86C123.819 31.88 123.609 31.89 123.389 31.89C122.689 31.89 122.059 31.78 121.499 31.56C120.939 31.32 120.459 31.05 120.059 30.75C120.519 31.21 121.069 31.54 121.709 31.74C122.349 31.92 122.979 32.01 123.599 32.01C123.939 32.01 124.289 31.98 124.649 31.92C124.609 32.04 124.589 32.11 124.589 32.13C124.589 32.25 124.639 32.33 124.739 32.37C124.819 32.35 124.959 32.3 125.159 32.22C125.359 32.12 125.559 32.03 125.759 31.95C125.979 31.85 126.189 31.77 126.389 31.71C126.589 31.63 126.729 31.59 126.809 31.59C126.909 31.59 126.999 31.61 127.079 31.65C127.159 31.67 127.199 31.78 127.199 31.98C127.199 32.18 127.129 32.42 126.989 32.7C126.849 32.98 126.639 33.26 126.359 33.54ZM122.219 21.66L122.879 21.78C123.099 21.82 123.299 21.84 123.479 21.84C123.679 21.84 123.909 21.78 124.169 21.66C124.449 21.52 124.719 21.33 124.979 21.09C125.259 20.85 125.499 20.55 125.699 20.19C125.919 19.83 126.079 19.42 126.179 18.96L126.239 18.78C125.959 18.78 125.539 18.85 124.979 18.99C124.419 19.13 123.839 19.32 123.239 19.56C122.639 19.78 122.079 20.05 121.559 20.37C121.039 20.67 120.679 21 120.479 21.36C120.779 21.42 121.069 21.48 121.349 21.54C121.649 21.58 121.939 21.62 122.219 21.66ZM120.839 23.88C120.879 23.84 120.899 23.78 120.899 23.7C120.919 23.62 120.929 23.56 120.929 23.52L119.519 23.01L119.369 23.43L120.839 23.88ZM119.999 30.69C119.859 30.53 119.719 30.37 119.579 30.21C119.459 30.07 119.359 29.93 119.279 29.79C119.459 30.13 119.699 30.43 119.999 30.69Z" fill="black"/>
</g>
<defs>
<filter id="filter0_d_101_5" x="-1" y="0" width="137" height="52" filterUnits="userSpaceOnUse" color-interpolation-filters="sRGB">
<feFlood flood-opacity="0" result="BackgroundImageFix"/>
<feColorMatrix in="SourceAlpha" type="matrix" values="0 0 0 0 0 0 0 0 0 0 0 0 0 0 0 0 0 0 127 0" result="hardAlpha"/>
<feOffset dy="4"/>
<feGaussianBlur stdDeviation="2"/>
<feComposite in2="hardAlpha" operator="out"/>
<feColorMatrix type="matrix" values="0 0 0 0 0 0 0 0 0 0 0 0 0 0 0 0 0 0 0.25 0"/>
<feBlend mode="normal" in2="BackgroundImageFix" result="effect1_dropShadow_101_5"/>
<feBlend mode="normal" in="SourceGraphic" in2="effect1_dropShadow_101_5" result="shape"/>
</filter>
</defs>
</svg>
